<svg width="191px" height="90px" viewBox="0 0 191 90" version="1.1" xmlns="http://www.w3.org/2000/svg" xmlns:xlink="http://www.w3.org/1999/xlink">
  <defs>
    <polygon id="path-1" points="0.7883 0.369 15.6693 0.369 15.6693 16.0583 0.7883 16.0583"></polygon>
    <polygon id="path-3" points="0 0.5271 136.326 0.5271 136.326 61 0 61"></polygon>
    <polygon id="path-5" points="0.0583 0.45911261 50.185 0.45911261 50.185 60.8643 0.0583 60.8643"></polygon>
  </defs>
  <g id="Artboard-1" stroke="none" stroke-width="1" fill="none" fill-rule="evenodd">
    <g id="Group-3" transform="translate(113.000000, -0.368600)">
      <mask id="mask-2" fill="white">
        <use xlink:href="#path-1"></use>
      </mask>
      <g id="Clip-2"></g>
      <path d="M4.7163,15.1323 C5.7493,15.7493 6.8843,16.0583 8.1223,16.0583 C10.2513,16.0583 12.0423,15.2363 13.4933,13.5893 C14.9453,11.9443 15.6693,10.0193 15.6693,7.8133 C15.6693,5.8383 14.9623,4.1053 13.5503,2.6143 C13.1053,2.1453 12.6183,1.7483 12.0933,1.4253 C12.0213,1.3813 11.9463,1.3403 11.8723,1.2983 C11.8453,1.2823 11.8203,1.2673 11.7943,1.2523 C10.7223,0.6633 9.4913,0.3683 8.1033,0.3683 C6.1283,0.3683 4.4153,1.1613 2.9643,2.7493 C1.5133,4.3363 0.7883,6.1943 0.7883,8.3233 C0.7883,10.3363 1.5133,12.1273 2.9643,13.6953 C3.5113,14.2853 4.0953,14.7643 4.7163,15.1323" id="Fill-1" fill="#000000" mask="url(#mask-2)"></path>
    </g>
    <g id="Group-6" transform="translate(0.000000, 28.631400)">
      <mask id="mask-4" fill="white">
          <use xlink:href="#path-3"></use>
      </mask>
      <g id="Clip-5"></g>
      <path d="M136.312,55.5151 C133.191,55.5131 129.58,54.6361 128.402,51.4781 C128.138,50.8181 128.001,50.0911 128.001,49.1301 L128.001,1.7041 L127.177,0.8961 C123.951,1.6951 119.578,2.2131 114.058,2.4501 C111.751,2.5481 109.341,2.5771 106.861,2.5581 L106.861,6.4961 C111.978,6.4961 116.722,7.0861 117.201,12.3621 L117.201,12.8821 L117.201,49.1301 C117.201,54.2321 112.669,55.5151 108.878,55.5151 C105.087,55.5151 100.556,54.2321 100.556,49.1301 L100.554,49.1301 L100.554,19.3401 C100.554,13.6501 99.23,9.0921 96.578,5.6661 C93.927,2.2401 89.029,0.5271 83.533,0.5271 C76.752,0.5271 69.827,1.9301 63.662,6.9431 C62.186,8.1431 61.107,9.3531 60.177,10.2831 L59.888,10.2831 L59.888,2.2101 L59.075,1.3981 L40.763,2.6761 L40.763,6.5061 C44.398,6.5061 48.701,7.6941 49.052,12.2881 C49.073,12.4511 49.087,12.6381 49.087,12.8931 L49.089,45.0211 C48.665,45.7851 48.102,46.6481 47.28,47.5071 C43.23,51.7451 34.082,55.2851 28.705,54.4781 C25.992,54.0661 23.886,53.4311 22.026,51.3411 C20.17,49.2491 19.24,46.1341 19.24,41.9921 L19.24,2.2131 L18.369,1.4001 L0,2.6741 L0,6.5061 L0.001,6.5061 C3.593,6.5061 7.843,7.6621 8.28,12.1241 C8.309,12.3281 8.324,12.5711 8.324,12.8931 L8.324,41.4291 C8.324,47.7361 9.646,52.5401 12.294,55.8471 C14.941,59.1521 19.077,60.8391 24.422,60.9801 C36.006,61.2901 41.398,57.9331 45.747,54.6201 C47.158,53.5461 47.951,52.4841 48.879,51.5151 L49.089,51.5151 C49.089,51.5151 48.973,59.3511 57.684,59.3511 L64.381,59.3511 L68.212,59.3511 L68.212,55.5171 C68.207,55.5151 68.204,55.5151 68.198,55.5151 C64.839,55.5131 60.911,54.4951 60.061,50.7141 C59.951,50.2421 59.888,49.7241 59.888,49.1301 L59.888,17.6931 C59.888,17.6931 60.351,16.1741 62.827,13.8111 C67.501,9.6801 72.882,7.4371 78.17,7.4371 C82.119,7.4371 84.835,8.5401 86.757,10.7461 C88.677,12.9521 89.638,16.0891 89.638,20.1521 L89.638,49.1201 L89.638,49.1301 C89.638,54.2321 85.111,55.5151 81.32,55.5151 C81.318,55.5151 81.316,55.5171 81.314,55.5171 L81.314,59.3511 L136.326,59.3511 L136.326,55.5171 C136.32,55.5151 136.316,55.5151 136.312,55.5151" id="Fill-4" fill="#000000" mask="url(#mask-4)"></path>
    </g>
    <g id="Group-9" transform="translate(141.000000, 28.631400)">
      <mask id="mask-6" fill="white">
        <use xlink:href="#path-5"></use>
      </mask>
      <g id="Clip-8"></g>
      <path d="M45.2163,44.6323 C43.2363,47.7533 41.1093,50.1363 38.8333,51.7783 C36.3023,53.6113 33.1613,54.5233 29.4133,54.5233 C26.8233,54.5233 24.4823,53.9563 22.3903,52.8203 C20.3063,51.6813 18.4683,49.9803 16.8783,47.7123 C13.6893,43.1633 12.0953,37.2863 12.0953,30.0873 C12.0953,25.5193 12.5363,21.5883 13.4273,18.3003 C14.3143,15.0073 15.4433,12.3703 16.9023,10.4593 C20.2083,6.1273 24.1223,4.8873 28.0973,4.8843 C31.4333,4.8813 33.5543,5.7353 34.9763,6.8863 C34.5113,7.6073 34.2163,8.4493 34.0993,9.4233 C33.8963,11.1473 34.2923,12.7083 35.2963,14.1063 C36.2413,15.4263 37.5623,16.2593 39.2513,16.6063 C39.8883,16.7353 40.4953,16.7753 41.0773,16.7243 C42.0463,16.6433 42.9353,16.3113 43.7473,15.7283 C45.1463,14.7273 45.9333,13.3443 46.1113,11.5813 C46.2883,9.8193 45.8593,8.2143 44.8203,6.7663 C44.7283,6.6393 44.5033,6.3613 44.5013,6.3593 C43.9113,5.6923 43.2673,5.0833 42.5133,4.5073 C42.0703,4.1673 41.6073,3.8503 41.1283,3.5533 C37.8183,1.4913 33.6653,0.4183 28.2903,0.4603 C23.4153,0.4973 19.4703,1.3023 16.0253,2.9863 C12.5813,4.6703 9.7163,6.8853 7.4313,9.6353 C5.0303,12.4983 3.2023,15.6833 1.9453,19.1873 C0.6853,22.6913 0.0583,26.4563 0.0583,30.4843 C0.0583,39.7363 2.3983,47.1113 7.0833,52.6093 C8.8413,54.6693 10.8513,56.3453 13.1143,57.6323 C16.8883,59.7863 21.3683,60.8643 26.5543,60.8643 C31.0053,60.8643 35.3233,59.5273 39.5033,56.8573 C43.6463,54.2123 46.9893,50.6363 49.5363,46.1283 C49.5603,46.0853 50.1593,45.0403 50.1853,44.9973 L45.2163,44.6323 Z" id="Fill-7" fill="#000000" mask="url(#mask-6)"></path>
    </g>
  </g>
</svg>
