<?xml version="1.0" encoding="utf-8"?>
<!-- Generator: Adobe Illustrator 24.1.0, SVG Export Plug-In . SVG Version: 6.00 Build 0)  -->
<svg version="1.1" id="Layer_1" xmlns="http://www.w3.org/2000/svg" xmlns:xlink="http://www.w3.org/1999/xlink" x="0px" y="0px"
	 viewBox="0 0 100 100" style="enable-background:new 0 0 100 100;" xml:space="preserve">
<g>
	<path d="M0,22.8l2.5,61.6c0.2,5.5,4.8,9.9,10.3,9.9h53.6c5.5,0,10.1-4.3,10.3-9.9l1.7-40.3C88.2,43.9,97,37,99.3,27.3
		c1.4-5.7,0.5-11.7-2.6-16.7c-3.1-5-7.9-8.6-13.7-10C71.1-2.2,59.2,5.1,56.3,16.9c-0.1,0.2-0.1,0.5-0.1,0.7
		c-5.2-0.3-10.7-0.4-16.6-0.4c-10.2,0-19.9,0.4-27.2,1.2C1,19.7,0,21.2,0,22.8L0,22.8C0,22.8,0,22.8,0,22.8L0,22.8z M66.8,27.1
		c4.3-0.5,7.1-1,9-1.5l-5.7,28.9c-2.9,14.5-15.7,25-30.4,25c-14.8,0-27.6-10.5-30.4-25L3.5,25.6c1.9,0.5,4.7,1,9,1.5
		c7.3,0.8,16.9,1.2,27.2,1.2C49.9,28.3,59.5,27.9,66.8,27.1L66.8,27.1z M69,9l7.3,12l-13.6-3.3C63.7,14.1,65.9,11.1,69,9z
		 M90.9,13.3l-12,7.3l3.3-13.6C85.8,8,88.8,10.2,90.9,13.3z M79.1,25.6L85.4,36c-2,1.1-4.4,1.8-6.8,1.9L79.1,25.6z M86.7,35.2
		l-7.3-12L93,26.5C91.9,30.2,89.6,33.2,86.7,35.2L86.7,35.2z M93.3,25.1l-13.6-3.3l12-7.3C93.4,17.7,94,21.5,93.3,25.1z M77.5,20.2
		l-7.3-12c3.3-1.8,7-2.4,10.6-1.7L77.5,20.2z M62.3,19.1l13.8,3.3c-1.6,0.7-6.4,1.6-13.9,2.2C61.9,22.8,62,20.9,62.3,19.1z
		 M73.8,84.3c-0.2,4-3.4,7.1-7.4,7.1l-53.6,0c-4,0-7.2-3.1-7.4-7.1l-1.8-43L6.4,55c3.1,15.8,17.1,27.3,33.3,27.3S69.7,70.8,72.9,55
		l2.7-13.7L73.8,84.3z M59.1,17.6C61.6,7.3,72,0.9,82.3,3.4c5,1.2,9.2,4.3,11.9,8.7c2.7,4.4,3.5,9.5,2.3,14.5
		c-2,8.4-9.6,14.3-18,14.7l0.1-2c7.7-0.3,14.2-5.6,16-13.2c1.1-4.5,0.4-9.1-2-13c-2.4-3.9-6.2-6.7-10.7-7.8c-4.5-1.1-9.1-0.4-13,2
		c-3.9,2.4-6.7,6.2-7.8,10.7c-0.5,2.2-0.6,4.5-0.3,6.7c-0.6,0-1.3,0.1-2,0.1C58.5,22.4,58.5,20,59.1,17.6L59.1,17.6z M39.6,20.1
		c5.6,0,11.1,0.1,16.2,0.4c-0.1,1.5-0.1,3,0.1,4.5c-4.7,0.2-10.2,0.4-16.3,0.4C20.9,25.4,8.1,24,4,22.8
		C8.1,21.5,20.9,20.1,39.6,20.1L39.6,20.1z"/>
	<path d="M19.3,38.9c-8,1-9.6,2.2-9.6,3.8c0,0.2,0,0.4,0.1,0.6l1.7,9.4c2.4,13.7,14.3,23.6,28.2,23.6c13.9,0,25.8-9.9,28.2-23.6
		l1.7-9.4c0.1-0.2,0.1-0.4,0.1-0.6c0-1.7-1.6-2.9-9.6-3.8c-5.4-0.7-12.7-1-20.4-1C31.9,37.9,24.7,38.3,19.3,38.9L19.3,38.9z
		 M39.6,73.6c-12.5,0-23.2-8.9-25.4-21.3L13,45.5c1.4,0.4,3.4,0.8,6.2,1.1c5.4,0.7,12.7,1,20.4,1c7.7,0,14.9-0.4,20.4-1
		c2.8-0.3,4.8-0.7,6.2-1.1L65,52.3C62.8,64.6,52.1,73.6,39.6,73.6L39.6,73.6z M65.4,42.8c-3.6,1-12.8,2-25.8,2c-13,0-22.2-1-25.8-2
		c3.6-1,12.8-2,25.8-2C52.7,40.8,61.9,41.8,65.4,42.8z"/>
</g>
</svg>
